<svg width="26" height="20" viewBox="0 0 26 20" fill="none" xmlns="http://www.w3.org/2000/svg">
<path d="M6 6.5V13.9941C6 16.7965 8.20104 19.1048 11.0003 19.2381V19.2381C13.9944 19.3807 16.5 16.9916 16.5 13.994V4.01134C16.5 2.58903 17.5846 1.4014 19.001 1.27263V1.27263C20.6115 1.12623 22 2.39425 22 4.01134V10.5" stroke="#2E3238" stroke-width="1.5" stroke-linecap="round" stroke-linejoin="bevel" stroke-dasharray="4 4"/>
<path fill-rule="evenodd" clip-rule="evenodd" d="M25.2913 13.3049C25.5785 13.0064 25.5785 12.5224 25.2913 12.2239C25.0042 11.9254 24.5386 11.9254 24.2514 12.2239L22.1657 14.3919L20.2553 12.4061C19.9682 12.1075 19.5026 12.1075 19.2154 12.4061C18.9282 12.7046 18.9282 13.1885 19.2154 13.487L21.1258 15.4728L19.2154 17.4587C18.9282 17.7572 18.9282 18.2412 19.2154 18.5397C19.5025 18.8382 19.9681 18.8382 20.2553 18.5397L22.1657 16.5538L24.2514 18.7218C24.5386 19.0203 25.0042 19.0203 25.2913 18.7218C25.5785 18.4233 25.5785 17.9394 25.2913 17.6409L23.2057 15.4729L25.2913 13.3049Z" fill="#2E3238"/>
<circle cx="6" cy="6" r="5.25" fill="#DAE9FF" stroke="#2E3238" stroke-width="1.5"/>
</svg>
